<svg xmlns="http://www.w3.org/2000/svg" xmlns:xlink="http://www.w3.org/1999/xlink" viewBox="0 0 277.47 110.38"><style>.st1{fill:#333}.st2{fill:#333}</style><g id="Camada_1"><path class="st2" d="M144.74 41.3l2.26 4.42h-4.95l-2.26-4.42-2.37-4.64-.11-.21c-.78-1.27-2.16-2.12-3.75-2.12h-4.42v11.39h-4.42V20.96h15.64c1.84 0 3.5.74 4.71 1.95 1.2 1.24 1.95 2.9 1.95 4.74a6.72 6.72 0 01-3.89 6.09c-.6.28-1.24.46-1.91.53l3.52 7.03zm-4.38-11.39c.32 0 .64-.07.92-.21.81-.35 1.34-1.17 1.34-2.05 0-.81-.42-1.38-.67-1.63-.28-.28-.81-.64-1.59-.64h-11.22v4.56l11.22-.03zM155 27.61v2.3h15.92v4.42H155V39c0 1.24 1.03 2.26 2.26 2.26h18.08v4.42h-18.08c-3.68 0-6.65-3.01-6.65-6.69V27.61c0-3.68 2.97-6.69 6.65-6.69h18.08v4.42h-18.08c-1.23 0-2.26 1.03-2.26 2.27zM204.37 20.96v24.77l-4.42-3.4-15.92-12.28v15.68h-4.42v-24.7l4.42 3.4 15.92 12.28V20.92l4.42.04zM232.46 45.69h-4.95l-2.26-4.42-5.41-10.62-5.41 10.62-2.26 4.42h-4.95l2.26-4.42 10.37-20.35 10.37 20.35 2.24 4.42zM252.31 20.96v4.42h-10.16v20.35h-4.42V25.38h-10.16v-4.42h24.74zM277.47 33.31c0 6.83-5.56 12.39-12.39 12.39-6.83 0-12.39-5.56-12.39-12.39s5.56-12.39 12.39-12.39c6.84 0 12.39 5.56 12.39 12.39zm-4.42 0c0-4.39-3.57-7.96-7.96-7.96-4.39 0-7.96 3.57-7.96 7.96 0 4.39 3.57 7.96 7.96 7.96 4.39 0 7.96-3.57 7.96-7.96zM149.56 63.38v4.42h-18.08c-1.24 0-2.26 1.03-2.26 2.26v2.3h15.92v4.42h-15.96v11.36h-4.39V70.07c0-3.68 2.97-6.69 6.65-6.69h18.12zM173.05 83.8l2.26 4.42h-4.95l-2.26-4.42-2.37-4.64-.11-.21c-.78-1.27-2.16-2.12-3.75-2.12h-4.42v11.39h-4.42V63.46h15.64c1.84 0 3.5.74 4.71 1.95 1.2 1.2 1.95 2.87 1.95 4.71a6.72 6.72 0 01-3.89 6.09c-.6.28-1.24.46-1.91.53l3.52 7.06zm-4.39-11.39c.32 0 .64-.07.92-.21.81-.35 1.34-1.17 1.34-2.05 0-.81-.42-1.38-.67-1.63-.28-.28-.81-.64-1.59-.64h-11.22v4.56l11.22-.03zM184.69 70.07v2.3h15.92v4.42h-15.92v4.67c0 1.24 1.03 2.26 2.26 2.26h18.08v4.42h-18.08c-3.68 0-6.65-3.01-6.65-6.69V70.07c0-3.68 2.97-6.69 6.65-6.69h18.08v4.42h-18.08c-1.23.01-2.26 1.03-2.26 2.27zM210.89 88.16V63.38h4.42v24.77h-4.42zM242.12 83.8l2.26 4.42h-4.95l-2.26-4.42-2.37-4.64-.11-.21c-.78-1.27-2.16-2.12-3.75-2.12h-4.42v11.39h-4.42V63.46h15.64c1.84 0 3.5.74 4.71 1.95 1.2 1.2 1.95 2.87 1.95 4.71a6.72 6.72 0 01-3.89 6.09c-.6.28-1.24.46-1.91.53l3.52 7.06zm-4.39-11.39c.32 0 .64-.07.92-.21.81-.35 1.34-1.17 1.34-2.05 0-.81-.42-1.38-.67-1.63-.28-.28-.81-.64-1.59-.64h-11.22v4.56l11.22-.03zM252.38 70.07v2.3h15.92v4.42h-15.92v4.67c0 1.24 1.03 2.26 2.26 2.26h18.08v4.42h-18.08c-3.68 0-6.65-3.01-6.65-6.69V70.07c0-3.68 2.97-6.69 6.65-6.69h18.08v4.42h-18.08c-1.23.01-2.26 1.03-2.26 2.27z"/><g><path class="st2" d="M75.46 105.04H35c-5.26 0-10.16-2.83-12.79-7.38L1.97 62.61a14.81 14.81 0 010-14.77L22.2 12.8c2.63-4.55 7.54-7.38 12.8-7.38h40.46c5.26 0 10.16 2.83 12.79 7.38l20.23 35.04a14.81 14.81 0 010 14.77L88.25 97.66a14.815 14.815 0 01-12.79 7.38zM35 14.37c-2.07 0-4 1.11-5.03 2.91L9.73 52.32a5.8 5.8 0 000 5.81l20.23 35.04a5.838 5.838 0 005.03 2.91h40.46c2.07 0 4-1.11 5.03-2.91l20.23-35.04a5.8 5.8 0 000-5.81L80.49 17.28a5.838 5.838 0 00-5.03-2.91H35z"/><path class="st1" d="M28.47 110.38V0l63.58 55.19-63.58 55.19zm8.96-90.75v71.12L78.4 55.19 37.43 19.63z"/><path class="st1" d="M28.47 0l63.58 55.19-26.21 22.75-6.8-5.95 19.36-16.8-40.97-35.56"/><defs><path id="SVGID_29_" d="M75.46 105.04H35c-5.26 0-10.16-2.83-12.79-7.38L1.97 62.61a14.81 14.81 0 010-14.77L22.2 12.8c2.63-4.55 7.54-7.38 12.8-7.38h40.46c5.26 0 10.16 2.83 12.79 7.38l20.23 35.04a14.81 14.81 0 010 14.77L88.25 97.66a14.815 14.815 0 01-12.79 7.38z"/></defs><clipPath id="SVGID_2_"><use xlink:href="#SVGID_29_" overflow="visible"/></clipPath><g clip-path="url(#SVGID_2_)"><path fill="#333" d="M87.22 108.58L56.15 81.32l-27.59-24V45.68l33.46 28.88 30.12 27.08z"/></g></g></g></svg>