<?xml version="1.0" encoding="UTF-8"?>
<svg width="13.287mm" height="11.984mm" version="1.1" viewBox="0 0 13.287 11.984" xmlns="http://www.w3.org/2000/svg">
 <g transform="translate(151.79 -175.35)">
  <path d="m-147.6 183.1v0.0677h-0.0451l-0.0452-0.0452v-0.0226zm0.18063 0.2032-0.0452 0.0452-0.0681-0.0677v-0.0452h0.0452zm0.15769 0.2032v0.0226l-0.0452 0.0452-0.0674-0.0677v-0.0677h0.0452zm0.2032 0.18063v0.0903l-0.0222 0.0222c-0.0755 0-0.11324-0.0448-0.11324-0.13511h0.0226zm0.29351 0.2032-0.0452 0.0452h-0.0903l-0.0226-0.0226 0.0226-0.0907h0.0677zm0.31609 0.0452-0.0903 0.0677-0.0677-0.0677 0.0452-0.0677c0.0751 0.0113 0.11289 0.0335 0.11289 0.0677m0.29351-0.0452v0.0452l-0.0681 0.0226-0.0903-0.0452 0.0681-0.0681h0.0452zm4.2658-0.2032c-0.53799 0.74119-1.2301 1.2376-2.0764 1.4898h-0.0226c-0.0903 0-0.15028-0.0529-0.18027-0.1584l0.0222-0.88018v-0.18027c0-0.34996-0.0903-0.61348-0.27094-0.79022l0.6096-0.11289c0.79763-0.27834 1.1963-0.8502 1.1963-1.7156 0-0.50024-0.13547-0.88406-0.4064-1.1511l0.0681-0.38347c-0.0268-0.45156-0.0794-0.67734-0.1584-0.67734h-0.0677c-0.22931 0-0.55281 0.13547-0.97049 0.4064-0.33867-0.0751-0.66958-0.12029-0.99307-0.13546-0.41381 0.03-0.73731 0.0751-0.9705 0.13546-0.44414-0.27093-0.7754-0.4064-0.99342-0.4064h-0.0677c-0.0713 0.0413-0.11642 0.19932-0.13547 0.47414v0.27093l0.0452 0.27058v0.0226c-0.27094 0.33866-0.40605 0.69991-0.40605 1.0834v0.0903c0 0.50412 0.17286 0.95567 0.51894 1.3547 0.48542 0.3309 0.9144 0.49635 1.2869 0.49635l-0.18062 0.27094c0 0.24094-0.16581 0.36089-0.49671 0.36089-0.27094 0-0.50412-0.14252-0.69992-0.42863-0.21413-0.2861-0.4325-0.42897-0.6544-0.42897-0.0903 0.0152-0.13546 0.0377-0.13546 0.0677v0.0451c0.24094 0.20709 0.38382 0.34996 0.42897 0.42898 0.19897 0.5267 0.51541 0.78987 0.94792 0.78987h0.0677l0.4512-0.0451 0.0229 0.74506c0 0.1203-0.0603 0.18063-0.18062 0.18063h-0.0452c-0.43286-0.10901-0.92181-0.38735-1.4672-0.83538-0.85795-0.8502-1.2869-1.8207-1.2869-2.9115 0-0.71861 0.21096-1.4259 0.63218-2.122 0.86536-1.2188 1.9791-1.8284 3.3408-1.8284 0.58667 0 1.2188 0.1658 1.8958 0.49671 1.3547 0.86148 2.0316 2.0204 2.0316 3.4759 0 0.75988-0.23319 1.505-0.69991 2.2348m3.156-3.2357-2.4338-4.2157c-0.31644-0.54786-0.90593-0.88829-1.5385-0.88829h-4.8676c-0.63288 0-1.2224 0.34043-1.5385 0.88829l-2.4338 4.2157c-0.31644 0.54751-0.31644 1.2284 0 1.7762l2.4338 4.2157c0.31609 0.54786 0.90558 0.88829 1.5385 0.88829h4.8676c0.63253 0 1.222-0.34043 1.5385-0.88829l2.4338-4.2157c0.31609-0.54786 0.31609-1.2287 0-1.7762" fill="#73e3e8"/>
 </g>
</svg>
