<svg xmlns="http://www.w3.org/2000/svg" viewBox="0 0 84.45 76.17">
  <path id="Camada_1" fill="#333" d="M82.95 32.44L67.48 5.65A11.314 11.314 0 0 0 57.7 0H26.76c-4.02 0-7.77 2.16-9.78 5.65L1.51 32.44a11.323 11.323 0 0 0 0 11.29l15.47 26.79c2.01 3.48 5.76 5.65 9.78 5.65H57.7c4.02 0 7.77-2.16 9.78-5.65l15.47-26.79c2.01-3.48 2.01-7.81 0-11.29zM62.89 53.01c-3.42 4.71-7.82 7.87-13.2 9.47h-.14c-.57 0-.96-.33-1.15-1l.14-5.6v-1.15c0-2.22-.57-3.9-1.72-5.02l3.87-.72c5.07-1.77 7.6-5.4 7.6-10.9 0-3.18-.86-5.62-2.58-7.32l.43-2.44c-.17-2.87-.5-4.3-1-4.3h-.43c-1.46 0-3.51.86-6.17 2.58-2.15-.48-4.26-.77-6.31-.86-2.63.19-4.69.48-6.17.86-2.82-1.72-4.93-2.58-6.31-2.58h-.43c-.45.26-.74 1.27-.86 3.01v1.72l.29 1.72v.14c-1.72 2.15-2.58 4.45-2.58 6.89v.57c0 3.2 1.1 6.07 3.3 8.61 3.08 2.1 5.81 3.16 8.18 3.16l-1.15 1.72c0 1.53-1.05 2.3-3.16 2.3-1.72 0-3.2-.91-4.45-2.73-1.36-1.82-2.75-2.73-4.16-2.73-.57.1-.86.24-.86.43v.29c1.53 1.32 2.44 2.22 2.73 2.73 1.27 3.35 3.28 5.02 6.03 5.02h.43l2.87-.29.14 4.73c0 .77-.38 1.15-1.15 1.15h-.29c-2.75-.69-5.86-2.46-9.33-5.31-5.45-5.4-8.18-11.57-8.18-18.51 0-4.57 1.34-9.06 4.02-13.49 5.5-7.75 12.58-11.62 21.23-11.62 3.73 0 7.75 1.05 12.05 3.16 8.61 5.48 12.91 12.84 12.91 22.1.01 4.83-1.48 9.57-4.44 14.21zM35.77 54.3v.29l-.43.14-.57-.29.43-.43h.29l.28.29zm-1.86.29l-.57.43-.43-.43.29-.43c.47.07.71.21.71.43zm-2.01-.29l-.29.29h-.57l-.14-.14.14-.57h.43l.43.42zm-1.87-1.29v.57l-.14.14c-.48 0-.72-.29-.72-.86h.14l.72.15zm-1.29-1.15V52l-.29.29-.43-.43v-.43h.29l.43.43zm-1-1.29l-.29.29-.43-.43v-.29h.29l.43.43zm-1.15-1.29v.43h-.29l-.29-.29v-.14h.58z"/>
</svg>
