<svg xmlns="http://www.w3.org/2000/svg" viewBox="0 0 84.45 76.17"><style></style><path d="M82.95 32.44L67.48 5.65A11.314 11.314 0 0 0 57.7 0H26.76c-4.02 0-7.77 2.16-9.78 5.65L1.51 32.44a11.323 11.323 0 0 0 0 11.29l15.47 26.79c2.01 3.48 5.76 5.65 9.78 5.65H57.7c4.02 0 7.77-2.16 9.78-5.65l15.47-26.79c2.01-3.48 2.01-7.81 0-11.29zM31.24 57.91h-8.15V31.4h8.15v26.51zm.68-34.32c-.68 2.79-2.19 4.19-4.53 4.19h-.34c-2.59 0-4.13-1.59-4.64-4.76l.11-.79c.83-2.64 2.42-3.96 4.76-3.96l1.13.23c2.34.87 3.51 2.34 3.51 4.42v.67zm30.13 34.32h-8.16V45.45c0-1.72-.11-3.23-.34-4.53-.72-1.96-2.04-2.94-3.96-2.94-3.32 0-4.98 2.3-4.98 6.91v13.03h-8.16V31.4h7.82v3.51h.11c2.02-2.72 4.66-4.08 7.93-4.08 2.61 0 4.64.6 6.12 1.81 2.42 1.4 3.62 5.32 3.62 11.78v13.49z" fill="#333" id="Camada_1"/></svg>