<?xml version="1.0" encoding="UTF-8"?>
<svg width="13.287mm" height="11.984mm" version="1.1" viewBox="0 0 13.287 11.984" xmlns="http://www.w3.org/2000/svg">
 <g transform="translate(-45.517 -146.62)">
  <path d="m55.279 155.73h-1.283v-1.96c0-0.27022-0.0176-0.508-0.0533-0.71296-0.11289-0.30868-0.32068-0.4632-0.62371-0.4632-0.52282 0-0.78388 0.36231-0.78388 1.0869v2.0493h-1.283v-4.1695h1.2294v0.55245h0.018c0.3175-0.42792 0.73343-0.64171 1.2471-0.64171 0.40993 0 0.73096 0.0953 0.96238 0.28505 0.38029 0.21978 0.57009 0.83749 0.57009 1.8531zm-4.7399-5.3993c-0.10654 0.43957-0.34431 0.65935-0.71261 0.65935h-0.0533c-0.40711 0-0.65053-0.24942-0.73096-0.74825l0.018-0.12488c0.13053-0.41557 0.37994-0.62371 0.74824-0.62371l0.17851 0.0356c0.36795 0.13688 0.5521 0.3683 0.5521 0.69532zm-0.10654 5.3993h-1.283v-4.1695h1.283zm8.134-4.0065-2.4335-4.2153c-0.31644-0.54786-0.90558-0.8883-1.5385-0.8883h-4.8676c-0.63253 0-1.222 0.34044-1.5385 0.8883l-2.4338 4.2153c-0.31644 0.54786-0.31644 1.2284 0 1.7766l2.4338 4.2153c0.31644 0.54786 0.90593 0.8883 1.5385 0.8883h4.8676c0.63288 0 1.222-0.34044 1.5385-0.8883l2.4335-4.2153c0.3168-0.54822 0.3168-1.2287 0-1.7766" fill="#73e3e8"/>
 </g>
</svg>
