<svg xmlns="http://www.w3.org/2000/svg" viewBox="0 0 84.45 76.17">
  <path id="Camada_1" fill="#333" d="M82.95 32.44L67.48 5.65A11.314 11.314 0 0 0 57.7 0H26.76c-4.02 0-7.77 2.16-9.78 5.65L1.51 32.44a11.323 11.323 0 0 0 0 11.29l15.47 26.79c2.01 3.48 5.76 5.65 9.78 5.65H57.7c4.02 0 7.77-2.16 9.78-5.65l15.47-26.79c2.01-3.48 2.01-7.81 0-11.29zm-18.03-3.89c-1.19 1.19-2.05 1.93-2.57 2.22v1.66c0 2.64-.52 5.46-1.57 8.45-1.57 4.39-4.16 8.19-7.76 11.42-5 4.18-10.72 6.28-17.17 6.28-5.2 0-9.98-1.39-14.34-4.18.64.09 1.47.13 2.48.13 2.88 0 5.75-.75 8.63-2.27.81-.44 1.7-1.02 2.66-1.74-1.63 0-3.24-.49-4.84-1.48-1.83-1.16-3.14-2.83-3.92-5.01.67.09 1.23.13 1.7.13h1.44c.7-.14 1.05-.25 1.05-.3-.15 0-.58-.12-1.31-.35-.96-.32-2.03-1-3.23-2.05-1.89-1.92-2.83-4.18-2.83-6.8 1.48.76 2.85 1.13 4.1 1.13v-.09c-.49-.26-1.1-.81-1.83-1.66-1.45-1.83-2.18-3.91-2.18-6.23 0-1.45.41-2.95 1.22-4.49 2.15 2.47 4.23 4.33 6.23 5.58 2.56 1.6 5.54 2.83 8.93 3.7 2 .32 3.37.48 4.1.48-.17-.78-.26-1.5-.26-2.14 0-2.59.94-4.79 2.83-6.62 1.89-1.77 4.07-2.66 6.54-2.66 2.47 0 4.74.96 6.8 2.88.2 0 .92-.17 2.14-.52a20.45 20.45 0 0 0 3.75-1.74c-.35 1.16-1.02 2.35-2.01 3.57-.93.81-1.58 1.32-1.96 1.53v.09c1.1 0 2.85-.49 5.23-1.48h.04c-.49.71-1.19 1.57-2.09 2.56z"/>
</svg>
