<?xml version="1.0" encoding="UTF-8"?>
<svg width="13.287mm" height="11.984mm" version="1.1" viewBox="0 0 13.287 11.984" xmlns="http://www.w3.org/2000/svg">
 <g transform="translate(-449.95 -47.591)">
  <path d="m460.17 52.083c-0.18768 0.18732-0.32209 0.30409-0.40428 0.3496v0.2607c0 0.41592-0.0826 0.85937-0.2473 1.33-0.24659 0.69039-0.6537 1.289-1.2206 1.7967-0.78599 0.65793-1.6866 0.98742-2.7012 0.98742-0.81844 0-1.5702-0.21943-2.2557-0.65864 0.10054 0.01376 0.23072 0.02081 0.39052 0.02081 0.45262 0 0.90488-0.11889 1.3578-0.35666 0.1277-0.06844 0.26705-0.15981 0.41804-0.27411-0.25577 0-0.50977-0.07761-0.76094-0.23319-0.28787-0.18274-0.49354-0.44556-0.61701-0.78846 0.10512 0.01341 0.19402 0.02046 0.2674 0.02046h0.22615c0.10972-0.02258 0.1644-0.03881 0.1644-0.04798-0.0226 0-0.0914-0.01799-0.20567-0.05468-0.15099-0.05045-0.31997-0.15804-0.5073-0.32244-0.29704-0.30162-0.44555-0.65828-0.44555-1.0696 0.23283 0.11889 0.44802 0.17815 0.64417 0.17815v-0.01341c-0.0776-0.04128-0.17357-0.12806-0.28752-0.2607-0.22895-0.28787-0.3429-0.61454-0.3429-0.98072 0-0.2286 0.0639-0.4639 0.19191-0.70626 0.33832 0.38876 0.66499 0.68157 0.98037 0.87771 0.40217 0.25153 0.87101 0.44591 1.4058 0.58314 0.31503 0.05009 0.53023 0.07514 0.64453 0.07514-0.0275-0.12347-0.0413-0.2353-0.0413-0.33584 0-0.40675 0.14852-0.75424 0.44556-1.0421 0.29704-0.27869 0.64029-0.41839 1.0284-0.41839 0.38876 0 0.74542 0.15064 1.07 0.45261 0.0317 0 0.14394-0.02752 0.3362-0.0822 0.20073-0.06879 0.39758-0.16016 0.58949-0.27446-0.055 0.18309-0.16016 0.37042-0.31538 0.56233-0.1464 0.12806-0.24941 0.20814-0.30868 0.23989v0.01376c0.17357 0 0.44803-0.07761 0.82268-0.23319h7e-3c-0.078 0.1143-0.18768 0.24941-0.32914 0.40464m2.8359 0.61242-2.4335-4.2153c-0.31644-0.54822-0.90593-0.88829-1.5388-0.88829h-4.8676c-0.63253 0-1.2217 0.34008-1.5385 0.88829l-2.4335 4.2153c-0.31644 0.54786-0.31644 1.2284 0 1.7762l2.4335 4.2157c0.3168 0.54786 0.90594 0.8883 1.5385 0.8883h4.8676c0.63289 0 1.2224-0.34043 1.5388-0.8883l2.4335-4.2157c0.3168-0.54786 0.3168-1.2284 0-1.7762" fill="#73e3e8"/>
 </g>
</svg>
